<svg xmlns="http://www.w3.org/2000/svg" viewBox="0 0 480 480" width="480" height="480" role="img" aria-labelledby="t d">
  <title id="t">La clé retrouvée</title>
  <desc id="d">Cadenas protecteur stylisé entouré d&#39;une aura douce et d&#39;étincelles de sécurité.</desc>
  
  <circle cx="240" cy="245" r="200" fill="#F4E4CC" opacity="0.55"></circle>
  <circle cx="240" cy="245" r="160" fill="#E5D2B5" opacity="0.55"></circle>
  
  <path d="M 180 215 L 180 175 Q 180 130 240 130 Q 300 130 300 175 L 300 215" stroke="#2A1A0F" stroke-width="22" fill="none" stroke-linecap="round"></path>
  
  <rect x="155" y="210" width="170" height="160" rx="32" fill="#2A1A0F"></rect>
  
  <circle cx="240" cy="270" r="22" fill="#E89B5A"></circle>
  <rect x="232" y="285" width="16" height="38" rx="6" fill="#E89B5A"></rect>
  
  <g stroke="#E89B5A" stroke-width="4" fill="none" stroke-linecap="round" opacity="0.7">
    <path d="M 50 380 Q 100 360 140 360"></path>
    <path d="M 430 380 Q 380 360 340 360"></path>
  </g>
  
  <g fill="#E89B5A">
    <circle cx="110" cy="140" r="6"></circle>
    <circle cx="375" cy="135" r="7" opacity="0.85"></circle>
    <circle cx="85" cy="195" r="4" opacity="0.55"></circle>
    <circle cx="395" cy="185" r="5" opacity="0.7"></circle>
  </g>
  
  <g transform="translate(330 340)">
    <circle r="22" fill="#4A7C36"></circle>
    <path d="M -10 0 L -3 7 L 11 -7" stroke="#F4E4CC" stroke-width="3.5" fill="none" stroke-linecap="round" stroke-linejoin="round"></path>
  </g>
</svg>